<?xml version="1.0" encoding="UTF-8" standalone="no"?> <svg id="Layer_1" data-name="Layer 1" xmlns="http://www.w3.org/2000/svg" viewBox="0 0 128 128"><defs><style>.cls-1{fill:#3b4551;}.cls-2{fill:#2b77c0;}</style></defs><title>a</title><path class="cls-1" d="M102.48648,63.23686a1.80375,1.80375,0,0,0-1.54669-1.15107l-5.68325-.37762a46.75472,46.75472,0,1,0-46.7433,47.42674,3.597,3.597,0,1,0,0-7.194A39.56726,39.56726,0,1,1,88.04449,61.20454l-6.45671-.43163a1.81248,1.81248,0,0,0-1.6726.89926,1.78194,1.78194,0,0,0,.054,1.90642L86.6776,73.6502l1.6546,2.46406a.48564.48564,0,0,0,.12591.1438,1.68754,1.68754,0,0,0,1.20508.64744.4971.4971,0,0,0,.1618.018,1.79279,1.79279,0,0,0,.80935-.19781A1.82528,1.82528,0,0,0,91.12,76.384l2.69777-2.76967,8.27311-8.471A1.78045,1.78045,0,0,0,102.48648,63.23686Z"/><circle class="cls-2" cx="48.51313" cy="32.15897" r="3.59702"/><circle class="cls-2" cx="48.51313" cy="93.30836" r="3.59702"/><circle class="cls-2" cx="17.93843" cy="62.73367" r="3.59702"/><path class="cls-1" d="M70.19538,41.87163a3.59607,3.59607,0,0,0-5.08466.14929L47.69565,60.48421l-7.8203-6.6184A3.59659,3.59659,0,1,0,35.228,59.35619l10.42223,8.82043c.0719.06092.15149.10516.22657.15939.08288.05983.16323.12349.24962.17553a3.52079,3.52079,0,0,0,.33525.16883c.08442.0393.166.08463.25259.117a3.56665,3.56665,0,0,0,.41176.11724c.06982.0168.13765.04226.20824.05489a3.60672,3.60672,0,0,0,.63789.05895l.00077-.00011.001.00011a3.60764,3.60764,0,0,0,.73624-.07838c.07772-.01625.15094-.04885.22756-.07014a3.54223,3.54223,0,0,0,.47993-.15818c.09243-.04051.17706-.09792.26642-.14644a3.54016,3.54016,0,0,0,.38783-.22986c.08946-.06455.16894-.14413.25314-.21768.08837-.077.18376-.14172.26587-.22866L70.34467,46.95629A3.59677,3.59677,0,0,0,70.19538,41.87163Z"/><path class="cls-2" d="M91.79958,81.34855a1.98227,1.98227,0,0,0-1.98205,1.98205V94.323H84.53386a1.0009,1.0009,0,0,1-1.1323-1.13219V83.3306a1.98189,1.98189,0,1,0-3.96377,0v9.8602a4.9346,4.9346,0,0,0,5.09608,5.096h5.28368V105.983a1.982,1.982,0,1,0,3.964,0V83.3306A1.98211,1.98211,0,0,0,91.79958,81.34855Z"/><path class="cls-2" d="M75.09013,104.00119H66.20449l8.427-8.4269A8.3333,8.3333,0,0,0,62.84644,83.78923l-1.409,1.409A1.9817,1.9817,0,0,0,64.24,88.00076l1.409-1.409a4.3699,4.3699,0,0,1,6.18,6.18l-11.81031,11.81a1.98187,1.98187,0,0,0,1.40135,3.38341H75.09013a1.98194,1.98194,0,0,0,0-3.96388Z"/><path class="cls-2" d="M125.91247,81.50069a1.97954,1.97954,0,0,0-1.64615-.87884H109.81719a1.98189,1.98189,0,0,0,0,3.96377h11.49175l-8.77916,21.37028a1.98144,1.98144,0,1,0,3.66563,1.50586L126.0993,83.3565A1.98041,1.98041,0,0,0,125.91247,81.50069Z"/><path class="cls-2" d="M103.8189,76.95545a1.9809,1.9809,0,0,0-2.28568,1.62178L96.17577,110.074a1.98184,1.98184,0,0,0,3.90768.6639l5.35744-31.49679A1.98163,1.98163,0,0,0,103.8189,76.95545Z"/></svg>