<svg xmlns="http://www.w3.org/2000/svg" viewBox="0 0 512 512" id="call-center"><path fill="#ffdaaa" d="M359.76,176.12v64.01a104,104,0,0,1-208,0V168.12s96,0,144-40C295.76,128.12,327.76,120.12,359.76,176.12Z"></path><path fill="#ff9811" d="M359.76,144.12v32c-32-56-64-48-64-48-48,40-144,40-144,40v-24a104,104,0,1,1,208,0Z"></path><path fill="#ffdaaa" d="M319.01,368.58c-3.99,33.16-63.25,72.28-63.25,72.28s-59.27-39.13-63.25-72.29l.01-.01a20.014,20.014,0,0,0,7.24-15.4V328.12h.55a104.084,104.084,0,0,0,110.9,0h.55v25.04a20,20,0,0,0,7.23,15.4C319,368.57,319.01,368.57,319.01,368.58Z"></path><path fill="#00ddc2" d="M447.76,467.98v28.14h-384V467.98a80.016,80.016,0,0,1,57.42-76.75l64.22-18.88a19.865,19.865,0,0,0,7.11-3.78c3.98,33.16,63.25,72.29,63.25,72.29s59.26-39.12,63.25-72.28a19.968,19.968,0,0,0,7.1,3.77l64.22,18.88A80.013,80.013,0,0,1,447.76,467.98Z"></path><polygon fill="#e0e0e2" points="192.51 368.56 192.52 368.56 192.51 368.57 192.51 368.56"></polygon><path fill="#e0e0e2" d="M319.01 368.56v.02c0-.01-.01-.01-.02-.02zM123.758 176.125h28a0 0 0 010 0v88a0 0 0 010 0h-28a20 20 0 01-20-20v-48A20 20 0 01123.758 176.125z"></path><path fill="#e0e0e2" d="M379.758,176.125h28a0,0,0,0,1,0,0v88a0,0,0,0,1,0,0h-28a20,20,0,0,1-20-20v-48A20,20,0,0,1,379.758,176.125Z" transform="rotate(180 383.757 220.125)"></path><path fill="#ff5023" d="M287.758,272.125a32,32,0,1,1-64,0Z"></path><rect width="72" height="32" x="319.758" y="464.125" fill="#e0e0e2"></rect><path d="M438.46,415.14a87.382,87.382,0,0,0-45.63-31.71l-64.22-18.88A12.067,12.067,0,0,1,320,353.04V331.86A112.419,112.419,0,0,0,363.33,272H388a28.031,28.031,0,0,0,28-28V196a28.043,28.043,0,0,0-24-27.71V144C392,69.01,330.99,8,256,8S120,69.01,120,144v24.29A28.043,28.043,0,0,0,96,196v48a28.031,28.031,0,0,0,28,28h4v12a28.031,28.031,0,0,0,28,28h14.28A113.194,113.194,0,0,0,192,331.86v21.18a12.067,12.067,0,0,1-8.61,11.51l-64.22,18.88A88.013,88.013,0,0,0,56,467.86V496a8,8,0,0,0,8,8H448a8,8,0,0,0,8-8V467.86A87.384,87.384,0,0,0,438.46,415.14ZM352,149.96c-29.5-36.24-56.62-30.05-57.94-29.72a7.927,7.927,0,0,0-3.18,1.61C253.51,153,183.59,158.72,160,159.77V144a96,96,0,0,1,192,0ZM400,196v48a12.01,12.01,0,0,1-12,12H368V184h20A12.01,12.01,0,0,1,400,196ZM136,144a120,120,0,0,1,240,0v24h-8V144a112,112,0,0,0-224,0v24h-8ZM124,256a12.01,12.01,0,0,1-12-12V196a12.01,12.01,0,0,1,12-12h20v72Zm32,40a12.01,12.01,0,0,1-12-12V272h4.67a111.415,111.415,0,0,0,10.36,24Zm22.07,0A95.521,95.521,0,0,1,160,240V175.8a390.107,390.107,0,0,0,47.32-4.91c40.07-6.68,71-18.54,92-35.28,6-.39,28.48,1.27,52.68,42.54V240a95.943,95.943,0,0,1-159.42,72H200a8,8,0,0,0,0-16Zm132.54,75.02c-5.57,21.57-37.72,48.07-54.61,60.02-16.9-11.94-49.04-38.42-54.61-60.02A28.025,28.025,0,0,0,208,353.04V341.18a111.88,111.88,0,0,0,96,0v11.86A28.045,28.045,0,0,0,310.61,371.02ZM384,488H328V472h56Zm56,0H400V464a8,8,0,0,0-8-8H320a8,8,0,0,0-8,8v24H72V467.86a72.4,72.4,0,0,1,51.68-69.08l63.81-18.76c4.91,13.05,15.96,27.44,32.99,42.92a286.149,286.149,0,0,0,31.11,24.48,8.027,8.027,0,0,0,8.82,0,286.149,286.149,0,0,0,31.11-24.48c17.03-15.48,28.08-29.87,32.99-42.92l63.81,18.76A72.4,72.4,0,0,1,440,467.86Z"></path><path d="M216 208v-8a8 8 0 00-16 0v8a8 8 0 0016 0zM304 216a8 8 0 008-8v-8a8 8 0 00-16 0v8A8 8 0 00304 216zM256 312a40.045 40.045 0 0040-40 8 8 0 00-8-8H224a8 8 0 00-8 8A40.045 40.045 0 00256 312zm22.629-32a24 24 0 01-45.258 0z"></path></svg>