<svg xmlns="http://www.w3.org/2000/svg" enable-background="new 0 0 50 50" viewBox="0 0 50 50" id="chemicals"><path fill="#E4E4E3" d="M48.5337,20.925v18.7637c0,1.0352-0.83,1.8652-1.8652,1.8652H36.4101
				c-1.0352,0-1.8652-0.83-1.8652-1.8652V20.925c0,0,6.0618-0.4942,6.9944,1.6414C42.4719,20.4307,48.5337,20.925,48.5337,20.925z"></path><path fill="#59B1E3" d="M35.4775,27.276v12.4125c0,0.5228,0.4098,0.9326,0.9326,0.9326h10.2585
				c0.5228,0,0.9326-0.4098,0.9326-0.9326v-7.9398L35.4775,27.276z"></path><path fill="#C7C7C7" d="M41.5393,23.2187c-0.2694,0-0.514-0.1599-0.6217-0.4067c-0.4884-1.1203-3.8665-1.3671-6.1062-1.187
					c-0.3674,0.0283-0.7004-0.2473-0.7304-0.6213c-0.0309-0.3731,0.2473-0.7004,0.6209-0.7308
					c0.9203-0.0764,5.0712-0.3197,6.8375,1.1808c1.7663-1.5005,5.919-1.2563,6.8375-1.1808
					c0.3736,0.0305,0.6518,0.3577,0.6209,0.7308c-0.03,0.374-0.3586,0.6487-0.7304,0.6213c-2.2441-0.181-5.6178,0.0671-6.1062,1.187
					C42.0533,23.0589,41.8087,23.2187,41.5393,23.2187z"></path><path fill="#E4E4E3" d="M35.0466,41.5538H20.2527c-1.5145,0-2.5137-1.5762-1.8647-2.9361l6.4183-13.5783v-6.2123h5.6868v6.2123
			l6.4182,13.5783C37.5604,39.9776,36.5611,41.5538,35.0466,41.5538z"></path><path fill="#83BD57" d="M35.5137,39.2784l-3.6679-7.7611l-7.4957-1.8972l-4.5674,9.6633
			c-0.1026,0.2153-0.0252,0.3949,0.0302,0.4829c0.0573,0.0905,0.1901,0.242,0.4397,0.242h14.7943
			c0.2495,0,0.3823-0.1514,0.4397-0.242C35.5419,39.6783,35.6193,39.4987,35.5137,39.2784z"></path><path fill="#C7C7C7" d="M31.2245,17.2818v1.0302c0,0.2885-0.237,0.5151-0.5151,0.5151h-6.1195
			c-0.2782,0-0.5151-0.2266-0.5151-0.5151v-1.0302c0-0.2884,0.2369-0.5151,0.5151-0.5151h6.1195
			C30.9876,16.7667,31.2245,16.9934,31.2245,17.2818z"></path><path fill="#E4E4E3" d="M23.5196,41.5538h-19.76c-2.0228,0-3.3576-2.1053-2.4906-3.9217l8.5728-18.1363v-8.2976h7.5958v8.2976
			l8.5728,18.1363C26.8772,39.4485,25.5425,41.5538,23.5196,41.5538z"></path><path fill="#E9715F" d="M24.1435,38.5146l-4.8992-10.3663l-10.0118-2.534L3.1319,38.5213
			c-0.1371,0.2876-0.0336,0.5274,0.0403,0.645c0.0766,0.1209,0.254,0.3232,0.5872,0.3232H23.52
			c0.3333,0,0.5106-0.2022,0.5872-0.3232C24.1811,39.0487,24.2846,38.8089,24.1435,38.5146z"></path><path fill="#C7C7C7" d="M18.4145,9.1341v1.376c0,0.3853-0.3165,0.688-0.688,0.688H9.5528c-0.3716,0-0.688-0.3027-0.688-0.688
			v-1.376c0-0.3853,0.3165-0.688,0.688-0.688h8.1737C18.098,8.4461,18.4145,8.7489,18.4145,9.1341z"></path><path fill="#F4887F" d="M20.2484,38.157c-0.2141,0-0.4166-0.1277-0.5025-0.3382l-3.3649-8.2739
				c-0.1134-0.2778,0.0201-0.5947,0.2979-0.7076c0.2767-0.1145,0.5937,0.0212,0.7071,0.2984l3.3649,8.2739
				c0.1134,0.2778-0.0201,0.5947-0.2979,0.7076C20.3862,38.1443,20.3162,38.157,20.2484,38.157z"></path><path fill="#98CB6A" d="M32.9131,38.9007c-0.1522,0-0.2961-0.0908-0.3571-0.2403l-2.3913-5.8799
				c-0.0806-0.1974,0.0143-0.4227,0.2117-0.5029c0.1966-0.0814,0.4219,0.0151,0.5025,0.2121l2.3913,5.8799
				c0.0806,0.1974-0.0143,0.4227-0.2117,0.5029C33.0111,38.8917,32.9613,38.9007,32.9131,38.9007z"></path><path fill="#7AC1E1" d="M45.9468,33.1702v5.7427c0,0.4343-0.3474,0.7925-0.7817,0.7925h-1.1073
			c-0.4343,0-0.7925-0.3583-0.7925-0.7925v-6.8717L45.9468,33.1702z"></path><circle cx="12.017" cy="32.249" r=".814" fill="#D75548"></circle><circle cx="8.465" cy="34.291" r=".814" fill="#D75548"></circle><circle cx="13.344" cy="36.688" r=".814" fill="#D75548"></circle><circle cx="26.279" cy="32.552" r=".814" fill="#74A842"></circle><circle cx="28.463" cy="34.814" r=".814" fill="#74A842"></circle><circle cx="38.495" cy="32.249" r=".814" fill="#35A9D9"></circle><circle cx="39.309" cy="37.502" r=".814" fill="#35A9D9"></circle><circle cx="40.938" cy="34.814" r=".814" fill="#35A9D9"></circle><circle cx="28.217" cy="37.629" r=".814" fill="#74A842"></circle><circle cx="11.203" cy="28.996" r=".814" fill="#D75548"></circle></svg>