<?xml version="1.0" encoding="UTF-8" standalone="no"?> <svg width="512" height="512" viewBox="0 0 512 512" fill="none" xmlns="http://www.w3.org/2000/svg">
<path d="M456 376H56V456H456V376Z" fill="#ACABB1"/>
<path d="M56 456C78.0914 456 96 438.091 96 416C96 393.909 78.0914 376 56 376C33.9086 376 16 393.909 16 416C16 438.091 33.9086 456 56 456Z" fill="#3E3D42"/>
<path d="M56 432C64.8366 432 72 424.837 72 416C72 407.163 64.8366 400 56 400C47.1634 400 40 407.163 40 416C40 424.837 47.1634 432 56 432Z" fill="#FF9811"/>
<path d="M456 456C478.091 456 496 438.091 496 416C496 393.909 478.091 376 456 376C433.909 376 416 393.909 416 416C416 438.091 433.909 456 456 456Z" fill="#3E3D42"/>
<path d="M456 432C464.837 432 472 424.837 472 416C472 407.163 464.837 400 456 400C447.163 400 440 407.163 440 416C440 424.837 447.163 432 456 432Z" fill="#FF9811"/>
<path d="M256 456C278.091 456 296 438.091 296 416C296 393.909 278.091 376 256 376C233.909 376 216 393.909 216 416C216 438.091 233.909 456 256 456Z" fill="#3E3D42"/>
<path d="M256 432C264.837 432 272 424.837 272 416C272 407.163 264.837 400 256 400C247.163 400 240 407.163 240 416C240 424.837 247.163 432 256 432Z" fill="#FF9811"/>
<path d="M244 216H108C101.373 216 96 221.373 96 228V364C96 370.627 101.373 376 108 376H244C250.627 376 256 370.627 256 364V228C256 221.373 250.627 216 244 216Z" fill="#A0815C"/>
<path d="M208 216H144V296H208V216Z" fill="#FF9811"/>
<path d="M404 216H268C261.373 216 256 221.373 256 228V364C256 370.627 261.373 376 268 376H404C410.627 376 416 370.627 416 364V228C416 221.373 410.627 216 404 216Z" fill="#A0815C"/>
<path d="M368 216H304V296H368V216Z" fill="#FF9811"/>
<path d="M324 56H188C181.373 56 176 61.3726 176 68V204C176 210.627 181.373 216 188 216H324C330.627 216 336 210.627 336 204V68C336 61.3726 330.627 56 324 56Z" fill="#A0815C"/>
<path d="M288 56H224V136H288V56Z" fill="#FF9811"/>
<path d="M256 168H200V192H256V168Z" fill="#FF9811"/>
<path d="M176 328H120V352H176V328Z" fill="#FF9811"/>
<path d="M336 328H280V352H336V328Z" fill="#FF9811"/>
<path d="M80 416C80 411.253 78.5924 406.613 75.9553 402.666C73.3181 398.72 69.5698 395.643 65.1844 393.827C60.799 392.01 55.9734 391.535 51.3178 392.461C46.6623 393.387 42.3859 395.673 39.0294 399.029C35.673 402.386 33.3872 406.662 32.4612 411.318C31.5351 415.973 32.0104 420.799 33.8269 425.184C35.6434 429.57 38.7195 433.318 42.6663 435.955C46.6131 438.592 51.2533 440 56 440C62.363 439.993 68.4634 437.462 72.9627 432.963C77.462 428.463 79.9929 422.363 80 416V416ZM48 416C48 414.418 48.4692 412.871 49.3483 411.555C50.2273 410.24 51.4767 409.214 52.9385 408.609C54.4004 408.003 56.0089 407.845 57.5607 408.154C59.1126 408.462 60.538 409.224 61.6569 410.343C62.7757 411.462 63.5376 412.887 63.8463 414.439C64.155 415.991 63.9965 417.6 63.391 419.061C62.7855 420.523 61.7602 421.773 60.4446 422.652C59.129 423.531 57.5823 424 56 424C53.879 423.998 51.8456 423.154 50.3458 421.654C48.846 420.154 48.0024 418.121 48 416V416Z" fill="black"/>
<path d="M456 368H423.6C423.866 366.683 424 365.343 424 364V228C423.995 222.697 421.886 217.613 418.136 213.864C414.387 210.114 409.303 208.005 404 208H343.6C343.866 206.683 344 205.343 344 204V68C343.995 62.6973 341.886 57.6133 338.136 53.8637C334.387 50.1141 329.303 48.0053 324 48H188C182.697 48.0053 177.613 50.1141 173.864 53.8637C170.114 57.6133 168.005 62.6973 168 68V204C168 205.343 168.134 206.683 168.4 208H108C102.697 208.005 97.6133 210.114 93.8637 213.864C90.1141 217.613 88.0053 222.697 88 228V364C88.0003 365.343 88.1343 366.683 88.4 368H56C43.2696 368 31.0606 373.057 22.0589 382.059C13.0571 391.061 8 403.27 8 416C8 428.73 13.0571 440.939 22.0589 449.941C31.0606 458.943 43.2696 464 56 464H456C468.73 464 480.939 458.943 489.941 449.941C498.943 440.939 504 428.73 504 416C504 403.27 498.943 391.061 489.941 382.059C480.939 373.057 468.73 368 456 368ZM56 448C49.671 448 43.4841 446.123 38.2218 442.607C32.9594 439.091 28.8579 434.093 26.4359 428.246C24.0139 422.399 23.3801 415.965 24.6149 409.757C25.8496 403.55 28.8973 397.848 33.3726 393.373C37.8479 388.897 43.5497 385.85 49.7571 384.615C55.9645 383.38 62.3986 384.014 68.2459 386.436C74.0931 388.858 79.0908 392.959 82.607 398.222C86.1232 403.484 88 409.671 88 416C87.9905 424.484 84.616 432.618 78.6169 438.617C72.6178 444.616 64.484 447.99 56 448V448ZM376 296V224H404C405.061 224 406.078 224.421 406.828 225.172C407.579 225.922 408 226.939 408 228V364C408 365.061 407.579 366.078 406.828 366.828C406.078 367.579 405.061 368 404 368H268C266.939 368 265.922 367.579 265.172 366.828C264.421 366.078 264 365.061 264 364V228C264 226.939 264.421 225.922 265.172 225.172C265.922 224.421 266.939 224 268 224H296V296C296 298.122 296.843 300.157 298.343 301.657C299.843 303.157 301.878 304 304 304H368C370.122 304 372.157 303.157 373.657 301.657C375.157 300.157 376 298.122 376 296ZM360 224V288H312V224H360ZM232 64H280V128H232V64ZM184 68C184 66.9391 184.421 65.9217 185.172 65.1716C185.922 64.4214 186.939 64 188 64H216V136C216 138.122 216.843 140.157 218.343 141.657C219.843 143.157 221.878 144 224 144H288C290.122 144 292.157 143.157 293.657 141.657C295.157 140.157 296 138.122 296 136V64H324C325.061 64 326.078 64.4214 326.828 65.1716C327.579 65.9217 328 66.9391 328 68V204C328 205.061 327.579 206.078 326.828 206.828C326.078 207.579 325.061 208 324 208H188C186.939 208 185.922 207.579 185.172 206.828C184.421 206.078 184 205.061 184 204V68ZM152 224H200V288H152V224ZM104 228C104 226.939 104.421 225.922 105.172 225.172C105.922 224.421 106.939 224 108 224H136V296C136 298.122 136.843 300.157 138.343 301.657C139.843 303.157 141.878 304 144 304H208C210.122 304 212.157 303.157 213.657 301.657C215.157 300.157 216 298.122 216 296V224H244C245.061 224 246.078 224.421 246.828 225.172C247.579 225.922 248 226.939 248 228V364C248 365.061 247.579 366.078 246.828 366.828C246.078 367.579 245.061 368 244 368H108C106.939 368 105.922 367.579 105.172 366.828C104.421 366.078 104 365.061 104 364V228ZM220.26 448H91.74C99.6335 439.211 104 427.814 104 416C104 404.186 99.6335 392.789 91.74 384H220.26C212.366 392.789 208 404.186 208 416C208 427.814 212.366 439.211 220.26 448V448ZM256 448C249.671 448 243.484 446.123 238.222 442.607C232.959 439.091 228.858 434.093 226.436 428.246C224.014 422.399 223.38 415.965 224.615 409.757C225.85 403.55 228.897 397.848 233.373 393.373C237.848 388.897 243.55 385.85 249.757 384.615C255.965 383.38 262.399 384.014 268.246 386.436C274.093 388.858 279.091 392.959 282.607 398.222C286.123 403.484 288 409.671 288 416C287.99 424.484 284.616 432.618 278.617 438.617C272.618 444.616 264.484 447.99 256 448V448ZM420.26 448H291.74C299.634 439.211 304 427.814 304 416C304 404.186 299.634 392.789 291.74 384H420.26C412.366 392.789 408 404.186 408 416C408 427.814 412.366 439.211 420.26 448V448ZM456 448C449.671 448 443.484 446.123 438.222 442.607C432.959 439.091 428.858 434.093 426.436 428.246C424.014 422.399 423.38 415.965 424.615 409.757C425.85 403.55 428.897 397.848 433.373 393.373C437.848 388.897 443.55 385.85 449.757 384.615C455.965 383.38 462.399 384.014 468.246 386.436C474.093 388.858 479.091 392.959 482.607 398.222C486.123 403.484 488 409.671 488 416C487.99 424.484 484.616 432.618 478.617 438.617C472.618 444.616 464.484 447.99 456 448V448Z" fill="black"/>
<path d="M456 392C451.253 392 446.613 393.408 442.666 396.045C438.72 398.682 435.643 402.43 433.827 406.816C432.01 411.201 431.535 416.027 432.461 420.682C433.387 425.338 435.673 429.614 439.029 432.971C442.386 436.327 446.662 438.613 451.318 439.539C455.973 440.465 460.799 439.99 465.184 438.173C469.57 436.357 473.318 433.28 475.955 429.334C478.592 425.387 480 420.747 480 416C479.993 409.637 477.462 403.537 472.963 399.037C468.463 394.538 462.363 392.007 456 392ZM456 424C454.418 424 452.871 423.531 451.555 422.652C450.24 421.773 449.214 420.523 448.609 419.061C448.003 417.6 447.845 415.991 448.154 414.439C448.462 412.887 449.224 411.462 450.343 410.343C451.462 409.224 452.887 408.462 454.439 408.154C455.991 407.845 457.6 408.003 459.061 408.609C460.523 409.214 461.773 410.24 462.652 411.555C463.531 412.871 464 414.418 464 416C463.998 418.121 463.154 420.154 461.654 421.654C460.154 423.154 458.121 423.998 456 424V424Z" fill="black"/>
<path d="M256 392C251.253 392 246.613 393.408 242.666 396.045C238.72 398.682 235.643 402.43 233.827 406.816C232.01 411.201 231.535 416.027 232.461 420.682C233.387 425.338 235.673 429.614 239.029 432.971C242.386 436.327 246.662 438.613 251.318 439.539C255.973 440.465 260.799 439.99 265.184 438.173C269.57 436.357 273.318 433.28 275.955 429.334C278.592 425.387 280 420.747 280 416C279.993 409.637 277.462 403.537 272.963 399.037C268.463 394.538 262.363 392.007 256 392V392ZM256 424C254.418 424 252.871 423.531 251.555 422.652C250.24 421.773 249.214 420.523 248.609 419.061C248.003 417.6 247.845 415.991 248.154 414.439C248.462 412.887 249.224 411.462 250.343 410.343C251.462 409.224 252.887 408.462 254.439 408.154C255.991 407.845 257.6 408.003 259.061 408.609C260.523 409.214 261.773 410.24 262.652 411.555C263.531 412.871 264 414.418 264 416C263.998 418.121 263.154 420.154 261.654 421.654C260.154 423.154 258.121 423.998 256 424V424Z" fill="black"/>
<path d="M264 192V168C264 165.878 263.157 163.843 261.657 162.343C260.157 160.843 258.122 160 256 160H200C197.878 160 195.843 160.843 194.343 162.343C192.843 163.843 192 165.878 192 168V192C192 194.122 192.843 196.157 194.343 197.657C195.843 199.157 197.878 200 200 200H256C258.122 200 260.157 199.157 261.657 197.657C263.157 196.157 264 194.122 264 192ZM248 184H208V176H248V184Z" fill="black"/>
<path d="M176 320H120C117.878 320 115.843 320.843 114.343 322.343C112.843 323.843 112 325.878 112 328V352C112 354.122 112.843 356.157 114.343 357.657C115.843 359.157 117.878 360 120 360H176C178.122 360 180.157 359.157 181.657 357.657C183.157 356.157 184 354.122 184 352V328C184 325.878 183.157 323.843 181.657 322.343C180.157 320.843 178.122 320 176 320ZM168 344H128V336H168V344Z" fill="black"/>
<path d="M336 320H280C277.878 320 275.843 320.843 274.343 322.343C272.843 323.843 272 325.878 272 328V352C272 354.122 272.843 356.157 274.343 357.657C275.843 359.157 277.878 360 280 360H336C338.122 360 340.157 359.157 341.657 357.657C343.157 356.157 344 354.122 344 352V328C344 325.878 343.157 323.843 341.657 322.343C340.157 320.843 338.122 320 336 320ZM328 344H288V336H328V344Z" fill="black"/>
</svg>
