<?xml version="1.0" encoding="UTF-8" standalone="no"?> <svg width="64" height="64" viewBox="0 0 64 64" fill="none" xmlns="http://www.w3.org/2000/svg">
<path d="M49 36H15V42H49V36Z" fill="#656B76"/>
<path d="M45 36H19V61H45V36Z" fill="#D0D8DA"/>
<path d="M26 43H45V36H19V61H45V57H31C28.8783 57 26.8434 56.1571 25.3431 54.6569C23.8429 53.1566 23 51.1217 23 49V46C23 45.2044 23.3161 44.4413 23.8787 43.8787C24.4413 43.3161 25.2044 43 26 43Z" fill="#93999A"/>
<path d="M32 8C31.7199 7.99974 31.4491 8.10085 31.2377 8.28466C31.0264 8.46847 30.8886 8.72256 30.85 9L29 21H35L33.15 9C33.1114 8.72256 32.9736 8.46847 32.7623 8.28466C32.5509 8.10085 32.2801 7.99974 32 8V8Z" fill="#FCBC04"/>
<path d="M33.91 44.59L32 43L30.09 44.59C28.8103 45.6567 27.7807 46.9915 27.0739 48.5001C26.3672 50.0086 26.0006 51.6541 26 53.32V61H38V53.32C37.9994 51.6541 37.6328 50.0086 36.9261 48.5001C36.2193 46.9915 35.1897 45.6567 33.91 44.59Z" fill="#F9E109"/>
<path d="M31 57C29.1818 56.9986 27.4182 56.3778 26 55.24V61H38V57H31Z" fill="#FCBC04"/>
<path d="M33.91 44.59L32 43L30.09 44.59L29.91 44.76L30.91 45.59C32.1897 46.6567 33.2193 47.9915 33.9261 49.5001C34.6328 51.0086 34.9995 52.6541 35 54.32V61H38V53.32C37.9995 51.6541 37.6328 50.0086 36.9261 48.5001C36.2193 46.9915 35.1897 45.6567 33.91 44.59Z" fill="#FCBC04"/>
<path d="M38 57H35V61H38V57Z" fill="#E59730"/>
<path d="M45 36H19V40H45V36Z" fill="#4891D3"/>
<path d="M61 43H45V61H61V43Z" fill="#D0D8DA"/>
<path d="M61 47V43H45V61H61V57H59C56.8783 57 54.8434 56.1571 53.3431 54.6569C51.8429 53.1566 51 51.1217 51 49V47H61Z" fill="#93999A"/>
<path d="M19 43H3V61H19V43Z" fill="#D0D8DA"/>
<path d="M3 47V43H19V61H3V57H5C7.12173 57 9.15656 56.1571 10.6569 54.6569C12.1571 53.1566 13 51.1217 13 49V47H3Z" fill="#93999A"/>
<path d="M11 27H3V43H11V27Z" fill="#93999A"/>
<path d="M8 30H11V39H10C8.93913 39 7.92172 38.5786 7.17157 37.8284C6.42143 37.0783 6 36.0609 6 35V32C6 31.4696 6.21071 30.9609 6.58579 30.5858C6.96086 30.2107 7.46957 30 8 30V30Z" fill="#D0D8DA"/>
<path d="M32 14C36.5087 14 40.8327 15.7911 44.0208 18.9792C47.2089 22.1673 49 26.4913 49 31V36H15V31C15 26.4913 16.7911 22.1673 19.9792 18.9792C23.1673 15.7911 27.4913 14 32 14V14Z" fill="#FCBC04"/>
<path d="M32 14C30.3057 13.9948 28.6202 14.2442 27 14.74C27.1905 18.8539 28.9599 22.7359 31.9401 25.5783C34.9203 28.4207 38.8817 30.0044 43 30H49C48.7447 25.6669 46.8415 21.5955 43.6806 18.6206C40.5198 15.6456 36.3407 13.9925 32 14V14Z" fill="#F9E109"/>
<path d="M11 19H3V27H11V19Z" fill="#4891D3"/>
<path d="M7 19H11V26C9.93913 26 8.92172 25.5786 8.17157 24.8284C7.42143 24.0783 7 23.0609 7 22V19Z" fill="#57B7EB"/>
<path d="M7 10L3 19H11L7 10Z" fill="#FCBC04"/>
<path d="M11 18.88L7 10V14C7.00436 15.1492 7.40448 16.2619 8.133 17.1507C8.86153 18.0395 9.87399 18.6502 11 18.88V18.88Z" fill="#F9E109"/>
<path d="M61 27H53V43H61V27Z" fill="#93999A"/>
<path d="M58 30H61V39H60C58.9391 39 57.9217 38.5786 57.1716 37.8284C56.4214 37.0783 56 36.0609 56 35V32C56 31.4696 56.2107 30.9609 56.5858 30.5858C56.9609 30.2107 57.4696 30 58 30Z" fill="#D0D8DA"/>
<path d="M61 19H53V27H61V19Z" fill="#4891D3"/>
<path d="M57 19H61V26C59.9391 26 58.9217 25.5786 58.1716 24.8284C57.4214 24.0783 57 23.0609 57 22V19Z" fill="#57B7EB"/>
<path d="M57 10L53 19H61L57 10Z" fill="#FCBC04"/>
<path d="M61 18.88L57 10V14C57.0044 15.1492 57.4045 16.2619 58.133 17.1507C58.8615 18.0395 59.874 18.6502 61 18.88V18.88Z" fill="#F9E109"/>
<path d="M49.23 52.64L48 51L46.77 52.64C45.6114 54.1859 44.9899 56.0681 45 58V61H51V58C51.0101 56.0681 50.3886 54.1859 49.23 52.64Z" fill="#E59730"/>
<path d="M7.23 52.64L6 51L4.77 52.64C3.61142 54.1859 2.98986 56.0681 3 58V61H9V58C9.01014 56.0681 8.38858 54.1859 7.23 52.64V52.64Z" fill="#FCBC04"/>
<path d="M5 57C6.32637 56.9836 7.6282 56.6401 8.79 56C8.52014 54.7648 7.98814 53.6019 7.23 52.59L6 51L4.77 52.64C3.81968 53.9139 3.2291 55.4197 3.06 57H5Z" fill="#E59730"/>
<path d="M59.23 52.64L58 51L56.77 52.64C55.6114 54.1859 54.9899 56.0681 55 58V61H61V58C61.0101 56.0681 60.3886 54.1859 59.23 52.64Z" fill="#FCBC04"/>
<path d="M59.23 52.64L58 51L56.77 52.64C56.0118 53.6519 55.4799 54.8148 55.21 56.05C56.3763 56.6727 57.6779 56.999 59 57H60.94C60.7709 55.4197 60.1803 53.9139 59.23 52.64V52.64Z" fill="#E59730"/>
<path d="M17.23 52.64L16 51L14.77 52.64C13.6114 54.1859 12.9899 56.0681 13 58V61H19V58C19.0101 56.0681 18.3886 54.1859 17.23 52.64Z" fill="#E59730"/>
<path d="M61 43H45V47H61V43Z" fill="#4891D3"/>
<path d="M19 43H3V47H19V43Z" fill="#4891D3"/>
<path d="M33.72 12.71L33.15 9C33.1114 8.72256 32.9736 8.46847 32.7623 8.28466C32.5509 8.10085 32.2801 7.99974 32 8V10C32.0006 10.5682 32.1626 11.1246 32.4671 11.6044C32.7716 12.0841 33.2061 12.4676 33.72 12.71V12.71Z" fill="#F9E109"/>
<path d="M61 28C61.2652 28 61.5196 27.8946 61.7071 27.7071C61.8946 27.5196 62 27.2652 62 27V19C61.9987 18.8874 61.9784 18.7758 61.94 18.67L58 9.79V6C58 5.73479 57.8946 5.48043 57.7071 5.2929C57.5196 5.10536 57.2652 5 57 5C56.7348 5 56.4804 5.10536 56.2929 5.2929C56.1054 5.48043 56 5.73479 56 6V9.79L52.09 18.59C52.0313 18.7188 52.0007 18.8585 52 19C52 19 52 19 52 19V42H50V36C50 35.7348 49.8946 35.4804 49.7071 35.2929C49.5196 35.1054 49.2652 35 49 35H16V31C16 26.7565 17.6857 22.6869 20.6863 19.6863C23.6869 16.6857 27.7565 15 32 15C36.2435 15 40.3131 16.6857 43.3137 19.6863C46.3143 22.6869 48 26.7565 48 31C48 31.2652 48.1054 31.5196 48.2929 31.7071C48.4804 31.8946 48.7348 32 49 32C49.2652 32 49.5196 31.8946 49.7071 31.7071C49.8946 31.5196 50 31.2652 50 31C49.9958 26.7179 48.4651 22.5776 45.6829 19.3225C42.9007 16.0675 39.0492 13.9109 34.82 13.24L34.16 8.93C34.7905 8.73927 35.3642 8.39576 35.83 7.93C36.0163 7.74264 36.1208 7.48919 36.1208 7.225C36.1208 6.96082 36.0163 6.70736 35.83 6.52C35.737 6.42627 35.6264 6.35188 35.5046 6.30111C35.3827 6.25034 35.252 6.2242 35.12 6.2242C34.988 6.2242 34.8573 6.25034 34.7354 6.30111C34.6136 6.35188 34.503 6.42627 34.41 6.52C34.0353 6.8925 33.5284 7.10159 33 7.10159C32.4716 7.10159 31.9647 6.8925 31.59 6.52C31.2168 6.14911 31.0049 5.64611 31 5.12C31.0022 4.59043 31.2144 4.08335 31.59 3.71C31.6832 3.61676 31.7572 3.50607 31.8077 3.38425C31.8581 3.26243 31.8841 3.13186 31.8841 3C31.8841 2.86814 31.8581 2.73758 31.8077 2.61575C31.7572 2.49393 31.6832 2.38324 31.59 2.29C31.4968 2.19676 31.3861 2.1228 31.2642 2.07234C31.1424 2.02188 31.0119 1.99591 30.88 1.99591C30.7481 1.99591 30.6176 2.02188 30.4958 2.07234C30.3739 2.1228 30.2632 2.19676 30.17 2.29C29.7981 2.66149 29.5031 3.10265 29.3018 3.58824C29.1005 4.07383 28.9969 4.59434 28.9969 5.12C28.9969 5.64566 29.1005 6.16617 29.3018 6.65176C29.5031 7.13736 29.7981 7.57851 30.17 7.95V7.95C29.9957 8.21232 29.8798 8.50901 29.83 8.82L29.15 13.22C24.9229 13.8978 21.0758 16.0601 18.2992 19.3187C15.5226 22.5773 13.9983 26.7189 14 31V42H4V28H10V39C10 39.2652 10.1054 39.5196 10.2929 39.7071C10.4804 39.8946 10.7348 40 11 40C11.2652 40 11.5196 39.8946 11.7071 39.7071C11.8946 39.5196 12 39.2652 12 39V19C11.9987 18.8874 11.9784 18.7758 11.94 18.67V18.67L8 9.79V6C8 5.73479 7.89464 5.48043 7.70711 5.2929C7.51957 5.10536 7.26522 5 7 5C6.73478 5 6.48043 5.10536 6.29289 5.2929C6.10536 5.48043 6 5.73479 6 6V9.79L2.09 18.59C2.03133 18.7188 2.00066 18.8585 2 19C2 19 2 19 2 19V61C2 61.2652 2.10536 61.5196 2.29289 61.7071C2.48043 61.8946 2.73478 62 3 62H26C26.2652 62 26.5196 61.8946 26.7071 61.7071C26.8946 61.5196 27 61.2652 27 61V53.32C26.9935 51.794 27.3246 50.2855 27.9694 48.9024C28.6143 47.5194 29.557 46.296 30.73 45.32L32 44.3L33.27 45.36C34.443 46.336 35.3857 47.5594 36.0306 48.9424C36.6754 50.3255 37.0065 51.834 37 53.36V61C37 61.2652 37.1054 61.5196 37.2929 61.7071C37.4804 61.8946 37.7348 62 38 62H61C61.2652 62 61.5196 61.8946 61.7071 61.7071C61.8946 61.5196 62 61.2652 62 61V31C62 30.7348 61.8946 30.4804 61.7071 30.2929C61.5196 30.1054 61.2652 30 61 30C60.7348 30 60.4804 30.1054 60.2929 30.2929C60.1054 30.4804 60 30.7348 60 31V42H54V28H61ZM31.84 9.14C31.8518 9.10705 31.8736 9.07855 31.9022 9.05841C31.9308 9.03826 31.965 9.02745 32 9.02745C32.035 9.02745 32.0692 9.03826 32.0978 9.05841C32.1265 9.07855 32.1482 9.10705 32.16 9.14L32.76 13.04C32.51 13.04 32.26 13.04 32 13.04C31.74 13.04 31.49 13.04 31.24 13.04L31.84 9.14ZM54 20H56V26H54V20ZM60 26H58V20H60V26ZM57 12.46L59.46 18H54.54L57 12.46ZM54 46V44H56V46H54ZM52 44V46H50V44H52ZM46 46V44H48V46H46ZM48 42H46V37H48V42ZM44 39H41V37H44V39ZM37 39V37H39V39H37ZM33 39V37H35V39H33ZM29 39V37H31V39H29ZM25 39V37H27V39H25ZM23 37V39H20V37H23ZM12 46V44H14V46H12ZM8 46V44H10V46H8ZM4 46V44H6V46H4ZM16 44H18V46H16V44ZM18 42H16V37H18V42ZM4 20H6V26H4V20ZM10 20V26H8V20H10ZM7 12.46L9.46 18H4.54L7 12.46ZM4 48H18V52L16.8 50.4C16.7069 50.2758 16.5861 50.175 16.4472 50.1056C16.3084 50.0361 16.1552 50 16 50C15.8448 50 15.6916 50.0361 15.5528 50.1056C15.4139 50.175 15.2931 50.2758 15.2 50.4L14 52C12.7018 53.731 12 55.8363 12 58V60H10V58C10 55.8363 9.29822 53.731 8 52L6.8 50.4C6.72121 50.2949 6.62249 50.2064 6.50949 50.1395C6.39649 50.0726 6.27142 50.0286 6.14142 50.0101C6.01142 49.9915 5.87903 49.9987 5.75182 50.0313C5.62461 50.0639 5.50506 50.1212 5.4 50.2C5.18783 50.3591 5.04756 50.596 5.01005 50.8586C4.97254 51.1211 5.04087 51.3878 5.2 51.6L6.43 53.23C7.45174 54.6103 8.0022 56.2827 8 58V60H4V48ZM14 58C14.0063 56.2964 14.5564 54.6393 15.57 53.27L16 52.71L16.43 53.27C17.4436 54.6393 17.9937 56.2964 18 58V60H14V58ZM34.55 43.83L32.64 42.23C32.4603 42.0803 32.2339 41.9984 32 41.9984C31.7661 41.9984 31.5397 42.0803 31.36 42.23L29.45 43.83C28.055 44.9864 26.9328 46.4367 26.1635 48.0773C25.3943 49.7178 24.997 51.5081 25 53.32V60H20V41H44V60H39V53.32C39.003 51.5081 38.6057 49.7178 37.8365 48.0773C37.0672 46.4367 35.945 44.9864 34.55 43.83V43.83ZM46 60V58C46.0063 56.2964 46.5564 54.6393 47.57 53.27L48 52.71L48.43 53.27C49.4436 54.6393 49.9937 56.2964 50 58V60H46ZM56 60V58C56.0063 56.2964 56.5564 54.6393 57.57 53.27L58.8 51.6C58.9591 51.3878 59.0275 51.1211 58.9899 50.8586C58.9524 50.596 58.8122 50.3591 58.6 50.2C58.3878 50.0409 58.1211 49.9725 57.8586 50.0101C57.596 50.0476 57.3591 50.1878 57.2 50.4L56 52C54.7018 53.731 54 55.8363 54 58V60H52V58C52 55.8363 51.2982 53.731 50 52L48.8 50.4C48.7069 50.2758 48.5861 50.175 48.4472 50.1056C48.3084 50.0361 48.1552 50 48 50C47.8448 50 47.6916 50.0361 47.5528 50.1056C47.4139 50.175 47.2931 50.2758 47.2 50.4L46 52V48H60V60H56ZM60 46H58V44H60V46Z" fill="#323232"/>
</svg>
