<?xml version="1.0" encoding="UTF-8" standalone="no"?> <svg id="Layer_1" data-name="Layer 1" xmlns="http://www.w3.org/2000/svg" viewBox="0 0 128 128"><defs><style>.cls-1{fill:#2d3e50;}.cls-2{fill:#1d75b8;}</style></defs><title>n</title><path class="cls-1" d="M114.65761,60.01247a24.00164,24.00164,0,0,1-7.91984,1.33625c-.06522,0-.13033,0-.19566-.002v38.501H78.18945a6.29236,6.29236,0,0,1-5.91737,4.14119H55.7256a6.29655,6.29655,0,0,1-5.17193-2.70511,6.19448,6.19448,0,0,1-.74345-1.43608H21.45546V44.72086a3.11784,3.11784,0,0,1,3.11864-3.11454H81.35891c.7945-4.239,1.39134-7.439,1.50949-8.11534H24.5741A11.23258,11.23258,0,0,0,13.34018,44.72086V99.84769H1.18541v.03665c0,2.26717,1.52986,4.37544,3.44662,6.12926a15.84865,15.84865,0,0,0,4.854,2.67256,41.095,41.095,0,0,0,7.89947,1.70089,52.46514,52.46514,0,0,0,7.2415.49087l39.37275-.01833,39.37286.01833a52.4862,52.4862,0,0,0,7.2415-.49087,41.09382,41.09382,0,0,0,7.89935-1.70089,15.85971,15.85971,0,0,0,4.85214-2.67256c1.91886-1.75382,3.44862-3.86209,3.44862-6.12926v-.03665H114.65761Z"/><path class="cls-2" d="M56.40183,78.51491a1.42155,1.42155,0,0,0-1.41935-1.41935H30.9613a1.41936,1.41936,0,0,0,0,2.83871H54.98248A1.42155,1.42155,0,0,0,56.40183,78.51491Z"/><path class="cls-2" d="M30.9613,85.57508a1.41938,1.41938,0,0,0,0,2.83876h11.612a1.41938,1.41938,0,0,0,0-2.83876Z"/><path class="cls-2" d="M30.50476,69.213c.1465.05924.30241.11533.46131.16831a8.44765,8.44765,0,0,0,2.6869.38025,7.57863,7.57863,0,0,0,2.81147-.44885,4.2386,4.2386,0,0,0,2.68679-3.02025,8.93368,8.93368,0,0,0,.26487-2.20372v-8.771a1.79064,1.79064,0,0,0-3.58127,0V63.9049a3.23,3.23,0,0,1-.57669,2.16,2.415,2.415,0,0,1-1.88265.64208,4.46152,4.46152,0,0,1-1.65189-.2992c-.02192-.00941-.04374-.01561-.06555-.025a1.53747,1.53747,0,0,0-.58289-.11223,1.52537,1.52537,0,0,0-.57038,2.94241Z"/><path class="cls-2" d="M58.01065,61.47014a9.65314,9.65314,0,0,0-.615-3.58925,7.47742,7.47742,0,0,0-1.70382-2.60872,6.99443,6.99443,0,0,0-2.52313-1.5854,8.931,8.931,0,0,0-3.07756-.5268,8.7178,8.7178,0,0,0-3.01953.5268,7.13384,7.13384,0,0,0-2.52556,1.5854,7.6054,7.6054,0,0,0-1.73162,2.60872,9.25366,9.25366,0,0,0-.64268,3.58925,9.61061,9.61061,0,0,0,.62,3.59428,7.30016,7.30016,0,0,0,1.69884,2.5961,7.03808,7.03808,0,0,0,2.52556,1.57028,8.86929,8.86929,0,0,0,3.075.53184,9.13053,9.13053,0,0,0,3.13558-.53184,6.83866,6.83866,0,0,0,2.51294-1.57028,7.36549,7.36549,0,0,0,1.66352-2.5961A9.77069,9.77069,0,0,0,58.01065,61.47014ZM54.0282,63.58489a4.729,4.729,0,0,1-.82672,1.61563A3.63545,3.63545,0,0,1,51.87071,66.249a4.54578,4.54578,0,0,1-3.57164,0,3.65628,3.65628,0,0,1-1.31826-1.04852,4.7742,4.7742,0,0,1-.82672-1.61563,7.93766,7.93766,0,0,1,0-4.21438,4.82716,4.82716,0,0,1,.82672-1.63074,3.78058,3.78058,0,0,1,1.31826-1.05361,4.07163,4.07163,0,0,1,1.79208-.38058,4.15427,4.15427,0,0,1,1.77956.368,3.59619,3.59619,0,0,1,1.33077,1.04348,4.78075,4.78075,0,0,1,.82672,1.6308,7.252,7.252,0,0,1,.28735,2.12228A7.141,7.141,0,0,1,54.0282,63.58489Z"/><path class="cls-2" d="M66.30321,69.64671a9.56744,9.56744,0,0,0,5.42916-1.26278,4.28033,4.28033,0,0,0,1.82242-3.7657,4.47814,4.47814,0,0,0-.547-2.22814,3.77879,3.77879,0,0,0-2.06691-1.5627,3.36765,3.36765,0,0,0,1.835-3.007,4.04321,4.04321,0,0,0-.51667-2.12222A3.90083,3.90083,0,0,0,70.825,54.30682a6.60988,6.60988,0,0,0-2.19292-.74356,16.4864,16.4864,0,0,0-2.79021-.2193h-4.8445v15.844h.00266v.45876ZM64.48833,56.30557c.27484-.03023.58987-.05044.94277-.05548.35035-.01.678-.01257.98795-.01257a4.75333,4.75333,0,0,1,2.15505.38811,1.40348,1.40348,0,0,1,.736,1.35607,1.47487,1.47487,0,0,1-.71322,1.36615,4.8374,4.8374,0,0,1-2.36179.42344H64.48833Zm0,6.20046h2.25095a4.83269,4.83269,0,0,1,2.36168.46884,1.66862,1.66862,0,0,1,.82927,1.57532,1.70682,1.70682,0,0,1-.98806,1.69884,6.22316,6.22316,0,0,1-2.59621.45876c-.36541,0-.70314-.00759-1.0081-.0227-.30761-.01511-.58987-.04031-.84953-.07059Z"/><path class="cls-2" d="M96.523,54.487a20.07852,20.07852,0,1,0-9.61469-20.44411c-.16333,1.029-5.116,27.3476-5.116,27.3476Zm9.248-28.55109a2.69,2.69,0,1,1-2.69122,2.68889A2.68741,2.68741,0,0,1,105.771,25.93594Zm-2.18119,19.82894h.85684V36.90405h-.1589a1.59948,1.59948,0,0,1-.2796-3.17434c.05592-.01118,1.80979-.35794,3.18995-.63084a1.38121,1.38121,0,0,1,1.651,1.35563V45.76489h.84554a1.36908,1.36908,0,1,1,0,2.73817h-6.10484a1.36908,1.36908,0,1,1,0-2.73817Z"/></svg>