<?xml version="1.0" encoding="UTF-8" standalone="no"?> <svg xmlns="http://www.w3.org/2000/svg" xmlns:xlink="http://www.w3.org/1999/xlink" viewBox="0 0 72 72"><defs><style>.cls-1{fill:#4793eb;}.cls-2{fill:#34ca82;}.cls-3{fill:#f7f7f7;}.cls-4{fill:url(#linear-gradient);}.cls-5{fill:#c6ced0;}</style><linearGradient id="linear-gradient" x1="59.146" y1="36.286" x2="59.146" y2="58.011" gradientUnits="userSpaceOnUse"><stop offset="0" stop-color="#fff"/><stop offset="1" stop-color="#e6eaeb"/></linearGradient></defs><title>Travelling</title><g id="Travelling"><circle class="cls-1" cx="36" cy="36" r="30"/><path class="cls-2" d="M65.69,31.72l-4.62.23a1.889,1.889,0,0,1-1.66-.84l-2.3-3.45a1.9,1.9,0,0,0-2.71-.46l-1.65,1.23A1.909,1.909,0,0,0,52,29.94v2.15a1.887,1.887,0,0,0,.71,1.48l3.31,2.65a1.884,1.884,0,0,1,.63,1.99l-1.61,5.65a1.4,1.4,0,0,0-.06.28l-.9,7.22a1.885,1.885,0,0,1-.54,1.1l-2.86,2.86a1.891,1.891,0,0,1-2.94-.33l-3.66-5.87a2.013,2.013,0,0,1-.14-.25l-2.13-4.99a3.982,3.982,0,0,1,.24-3.63l1.57-2.62a1.889,1.889,0,0,0,.24-1.35l-.56-2.76A1.876,1.876,0,0,0,41.45,32a3.5,3.5,0,0,1-2.48-1.03l-1.44-1.44a3.505,3.505,0,0,1-.84-3.59l.61-1.84a3.5,3.5,0,0,1,2.89-2.37l5.05-.63a1.91,1.91,0,0,0,1.24-.7l3.4-4.25a2.226,2.226,0,0,1,.26-.27l4.25-3.58A29.943,29.943,0,0,1,65.69,31.72Z"/><path class="cls-2" d="M26.77,39H24.23a1.816,1.816,0,0,1-.46-.06l-3.09-.77a1.882,1.882,0,0,0-1.3.14l-5.9,2.95a4.039,4.039,0,0,1-3.05.22L6.29,40.1A27.774,27.774,0,0,1,6,36a29.841,29.841,0,0,1,6.57-18.72l5.56,2.78a4.037,4.037,0,0,1,2.17,3.01l.59,4.13a1.878,1.878,0,0,0,.77,1.27l5.7,4.08a1.871,1.871,0,0,1,.77,1.22l.5,3.03A1.882,1.882,0,0,1,26.77,39Z"/><path class="cls-2" d="M25.99,57.35l-3.31,5.52h-.01A29.972,29.972,0,0,1,8.58,48.17l3.72-1.49a5.024,5.024,0,0,1,3.44-.1l6.14,2.05a4.917,4.917,0,0,1,1.95,1.2l1.41,1.41A5.006,5.006,0,0,1,25.99,57.35Z"/><path class="cls-2" d="M34.681,58.638l-.073.145a1.888,1.888,0,0,0,.354,2.179l.944.944a1.887,1.887,0,0,0,2.381.236h0a1.887,1.887,0,0,0,.427-2.749l-.871-1.09A1.888,1.888,0,0,0,34.681,58.638Z"/><path class="cls-3" d="M15.858,55.965a1.014,1.014,0,0,1-.2-.021,9.154,9.154,0,0,1-2.152-.731,1,1,0,0,1,.875-1.8,7.087,7.087,0,0,0,1.682.571,1,1,0,0,1-.2,1.98Zm4.014-.185a1,1,0,0,1-.29-1.957A7.121,7.121,0,0,0,21.2,53.1a1,1,0,0,1,1.039,1.709,9.066,9.066,0,0,1-2.078.928A.976.976,0,0,1,19.872,55.78ZM37.17,53.1a1.023,1.023,0,0,1-.287-.042,7.313,7.313,0,0,1-2.108-1.022A1,1,0,0,1,35.926,50.4a5.274,5.274,0,0,0,1.531.743A1,1,0,0,1,37.17,53.1Zm3.991-.109a1,1,0,0,1-.339-1.94,5.4,5.4,0,0,0,1.49-.826A1,1,0,1,1,43.546,51.8,7.351,7.351,0,0,1,41.5,52.929.98.98,0,0,1,41.161,52.988Zm-30.287-.273a1,1,0,0,1-.814-.419,9.017,9.017,0,0,1-1.08-2,1,1,0,0,1,1.866-.719,7.106,7.106,0,0,0,.841,1.561,1,1,0,0,1-.813,1.581Zm13.868-.457a1,1,0,0,1-.707-1.707l.758-.758a7.44,7.44,0,0,1,.84-.723,1,1,0,0,1,1.187,1.61,5.42,5.42,0,0,0-.613.527l-.758.758A1,1,0,0,1,24.742,52.258Zm7.274-2.3a1.024,1.024,0,0,1-.316-.051,5.359,5.359,0,0,0-1.682-.274,1,1,0,0,1-1-1,1.038,1.038,0,0,1,1-1,7.37,7.37,0,0,1,2.308.376,1,1,0,0,1-.315,1.949ZM45.83,49.17a1,1,0,0,1-.707-1.707l1.437-1.437a1,1,0,0,1,1.414,1.414l-1.437,1.437A1,1,0,0,1,45.83,49.17ZM9.437,46.941a1.2,1.2,0,0,1-.131-.008,1,1,0,0,1-.861-1.122,9.142,9.142,0,0,1,.574-2.2,1,1,0,0,1,1.857.743,7.115,7.115,0,0,0-.448,1.718A1,1,0,0,1,9.437,46.941Zm40.7-2.079a1,1,0,0,1-.707-1.707l1.435-1.435a1,1,0,0,1,1.414,1.414l-1.435,1.435A1,1,0,0,1,50.138,44.862Zm4.307-4.307a1,1,0,0,1-.707-1.707l1.436-1.436a1,1,0,0,1,1.414,1.414l-1.436,1.436A1,1,0,0,1,54.445,40.555Z"/><path class="cls-4" d="M58.793,36.207a1,1,0,0,1-.707-1.707l.707-.707a1,1,0,0,1,1.414,1.414l-.707.707A1,1,0,0,1,58.793,36.207Z"/><path class="cls-3" d="M44.285,35.733,35.5,17.5,17.267,8.715a1,1,0,0,0-.951.045L14.638,9.769a1,1,0,0,0-.047,1.687L30.635,22.365,41.544,38.409a1,1,0,0,0,1.687-.047l1.009-1.678A1,1,0,0,0,44.285,35.733Z"/><path class="cls-3" d="M15.373,37.627l-5.5-4.4a1,1,0,0,1,.309-1.733l.017,0a1,1,0,0,1,.634,0l8.005,2.668,2.668,8.005a1,1,0,0,1,0,.634l0,.017a1,1,0,0,1-1.733.309Z"/><path class="cls-3" d="M14.31,40.828h-.019a2,2,0,0,1-2.12-2.12V38.69a2,2,0,0,1,.483-1.189L36.168,10.276A8.012,8.012,0,0,1,42.233,7.5H43.5a2,2,0,0,1,2,2v1.264a8.012,8.012,0,0,1-2.776,6.065L15.5,40.345A2,2,0,0,1,14.31,40.828Z"/><path class="cls-5" d="M42.527,10.473a5.071,5.071,0,0,1,1.429,2.82,3.221,3.221,0,0,0-4.249-4.249A5.071,5.071,0,0,1,42.527,10.473Z"/></g></svg>